<svg xmlns="http://www.w3.org/2000/svg" width="181" height="40" fill="none"><path fill="#7B7B7B" d="M53.312 26.696c0 .873-.18 1.544-.54 2.013-.351.469-.938.703-1.76.703-.775 0-1.324-.234-1.648-.703-.313-.469-.47-1.14-.47-2.013V12.123c0-.873.157-1.544.47-2.012.324-.47.873-.704 1.649-.704.821 0 1.408.235 1.758.704.36.468.54 1.14.54 2.012v14.573Zm1.339-4.233c0-.974.157-1.893.471-2.757a6.431 6.431 0 0 1 1.44-2.289c.647-.653 1.45-1.172 2.41-1.558.97-.386 2.105-.579 3.407-.579 1.247 0 2.35.18 3.31.538.96.358 1.769.86 2.424 1.502a6.273 6.273 0 0 1 1.496 2.275c.341.873.512 1.83.512 2.868 0 .965-.161 1.88-.484 2.743a6.39 6.39 0 0 1-1.455 2.262c-.646.643-1.454 1.158-2.423 1.544-.97.377-2.096.565-3.38.565-1.264 0-2.382-.18-3.351-.538-.96-.367-1.768-.868-2.424-1.503a6.39 6.39 0 0 1-1.468-2.26 8.038 8.038 0 0 1-.485-2.813Zm4.612 0c0 .607.056 1.186.166 1.737.111.542.287 1.02.527 1.434.249.413.572.744.97.992.396.24.88.359 1.453.359.527 0 .984-.11 1.371-.331.397-.22.72-.528.97-.924.258-.395.452-.868.582-1.42a8.23 8.23 0 0 0 .194-1.847 7.96 7.96 0 0 0-.18-1.723 4.5 4.5 0 0 0-.54-1.448 2.785 2.785 0 0 0-.97-.993c-.388-.248-.863-.372-1.427-.372-.563 0-1.043.12-1.44.359-.397.238-.72.565-.97.978a4.511 4.511 0 0 0-.54 1.448 8.869 8.869 0 0 0-.166 1.751Zm22.228 4.289c-.25.46-.554.85-.914 1.172-.35.322-.743.588-1.177.8a6.012 6.012 0 0 1-1.371.455c-.48.092-.974.138-1.482.138-.85 0-1.625-.152-2.327-.455a5.126 5.126 0 0 1-1.814-1.31c-.499-.579-.886-1.287-1.163-2.123-.277-.837-.416-1.792-.416-2.868 0-1.01.13-1.958.388-2.84.258-.882.632-1.65 1.122-2.302a5.463 5.463 0 0 1 1.828-1.544c.72-.377 1.542-.566 2.465-.566 1.053 0 1.985.203 2.798.607.821.404 1.528 1.066 2.119 1.985v-.358c0-.662.18-1.158.54-1.49.37-.34.877-.51 1.523-.51.388 0 .716.065.984.194.267.12.48.303.637.551.157.24.267.538.332.896.074.35.11.75.11 1.2v9.237c0 1.121-.142 2.123-.428 3.005-.278.883-.712 1.627-1.302 2.234-.591.607-1.348 1.066-2.272 1.379-.923.321-2.022.482-3.296.482-.895 0-1.69-.041-2.382-.124a9.309 9.309 0 0 1-1.773-.345c-.498-.174-.877-.367-1.135-.579a1.033 1.033 0 0 1-.374-.827c0-.193.027-.377.083-.551.055-.175.138-.331.25-.47.12-.128.272-.233.456-.316a2 2 0 0 1 .706-.11c.296 0 .591.018.887.055l.942.11c.332.046.678.087 1.038.124.37.037.767.055 1.191.055.508 0 .96-.05 1.358-.151.397-.102.734-.28 1.01-.538.278-.257.49-.602.638-1.034.147-.423.221-.965.221-1.627v-1.64Zm0-4.287c0-.671-.05-1.282-.152-1.834-.092-.551-.254-1.02-.485-1.406a2.38 2.38 0 0 0-.928-.91c-.388-.22-.872-.331-1.454-.331-.572 0-1.048.115-1.426.345a2.53 2.53 0 0 0-.887.95 4.517 4.517 0 0 0-.47 1.421 11.477 11.477 0 0 0-.125 1.737c0 1.406.249 2.463.748 3.171.498.708 1.223 1.062 2.174 1.062.443-.01.845-.092 1.205-.249.37-.165.688-.418.955-.758.268-.34.476-.772.624-1.296.147-.524.221-1.158.221-1.902Zm5.454-.002c0-.974.157-1.893.471-2.757a6.434 6.434 0 0 1 1.44-2.289c.647-.653 1.45-1.172 2.41-1.558.97-.386 2.105-.579 3.407-.579 1.247 0 2.35.18 3.31.538.96.358 1.768.86 2.424 1.502a6.284 6.284 0 0 1 1.496 2.275c.341.873.512 1.83.512 2.868 0 .965-.161 1.88-.485 2.743a6.38 6.38 0 0 1-1.454 2.262c-.646.643-1.454 1.158-2.424 1.544-.969.377-2.095.565-3.379.565-1.265 0-2.382-.18-3.351-.538-.96-.367-1.768-.868-2.424-1.503a6.39 6.39 0 0 1-1.468-2.26 8.04 8.04 0 0 1-.485-2.813Zm4.612 0c0 .607.055 1.186.166 1.737.111.542.287 1.02.527 1.434.249.413.572.744.97.992.396.24.88.359 1.453.359.527 0 .984-.11 1.371-.331.397-.22.72-.528.97-.924.258-.395.452-.868.582-1.42.129-.56.193-1.176.193-1.847 0-.607-.06-1.181-.18-1.723a4.497 4.497 0 0 0-.54-1.448 2.784 2.784 0 0 0-.97-.993c-.387-.248-.862-.372-1.426-.372-.563 0-1.043.12-1.44.359-.397.238-.72.565-.97.978a4.511 4.511 0 0 0-.54 1.448 8.869 8.869 0 0 0-.166 1.751Zm16.796-11.827c0 .304-.069.575-.208.814-.138.23-.318.423-.54.579-.222.156-.48.276-.776.358a3.543 3.543 0 0 1-1.814-.013 2.533 2.533 0 0 1-.762-.359 1.897 1.897 0 0 1-.526-.593 1.577 1.577 0 0 1-.194-.786c0-.266.06-.51.18-.73.129-.23.3-.428.513-.593a2.37 2.37 0 0 1 .761-.386c.296-.092.619-.138.97-.138.305 0 .6.041.886.124.296.083.554.202.776.359.221.156.397.349.526.579.139.23.208.491.208.785Zm-.208 16.062c0 .873-.18 1.544-.54 2.013-.351.469-.937.703-1.759.703-.775 0-1.325-.234-1.648-.703-.314-.469-.471-1.14-.471-2.013V18.26c0-.873.157-1.544.471-2.012.323-.469.873-.704 1.648-.704.822 0 1.408.235 1.759.704.36.468.54 1.14.54 2.012v8.438Zm6.37-4.261c0 .616.046 1.19.138 1.723.102.533.268 1.002.499 1.407a2.7 2.7 0 0 0 .942.937c.397.23.886.345 1.468.345.535 0 .983-.11 1.343-.331a2.56 2.56 0 0 0 .887-.938 4.51 4.51 0 0 0 .47-1.42c.102-.542.153-1.13.153-1.764 0-.506-.037-1.02-.112-1.544a4.97 4.97 0 0 0-.414-1.448 2.838 2.838 0 0 0-.845-1.062c-.361-.275-.831-.413-1.413-.413-.582 0-1.076.092-1.482.276-.397.183-.72.464-.969.84-.241.377-.411.85-.513 1.42a11.253 11.253 0 0 0-.152 1.972Zm-.014-4.177a4.68 4.68 0 0 1 .886-1.283 5.446 5.446 0 0 1 2.549-1.475c.48-.128.955-.193 1.426-.193.849 0 1.616.189 2.299.566a5.37 5.37 0 0 1 1.745 1.544c.489.643.864 1.406 1.122 2.288.258.873.388 1.81.388 2.813 0 1.038-.139 1.99-.416 2.854-.267.864-.651 1.608-1.15 2.233a5.268 5.268 0 0 1-1.773 1.448c-.683.349-1.444.523-2.284.523-1.034 0-1.958-.238-2.77-.716-.813-.478-1.487-1.15-2.022-2.013v4.963c0 .873-.18 1.544-.54 2.013-.351.469-.937.703-1.759.703-.776 0-1.325-.234-1.648-.703-.314-.469-.471-1.14-.471-2.013V18.26c0-.874.157-1.545.471-2.013.323-.469.872-.703 1.648-.703.822 0 1.408.234 1.759.703.36.468.54 1.14.54 2.013Zm15.287.977c0 .358.157.639.47.84.314.194.748.355 1.302.483.526.12 1.066.235 1.621.345.554.11 1.094.239 1.62.386.526.138 1.02.303 1.482.496a4.72 4.72 0 0 1 1.218.731c.351.285.628.634.831 1.048.204.404.305.891.305 1.461 0 .717-.148 1.356-.443 1.917a4.062 4.062 0 0 1-1.26 1.406c-.535.386-1.177.685-1.925.896a9.454 9.454 0 0 1-2.479.33c-.858 0-1.686-.054-2.48-.165-.793-.1-1.5-.262-2.119-.482-.609-.22-1.098-.492-1.468-.814-.368-.33-.553-.716-.553-1.158 0-.386.124-.684.374-.896.249-.211.567-.317.956-.317.147 0 .322.028.526.083.203.055.424.124.664.207.24.082.494.174.762.275.277.092.563.175.858.249.37.1.748.183 1.136.248a8.87 8.87 0 0 0 1.219.082c.258 0 .512-.023.762-.068.249-.056.471-.134.665-.235.203-.11.369-.248.499-.413a1.21 1.21 0 0 0 .235-.607c.027-.055.051-.11.068-.166a.59.59 0 0 0 .029-.193c0-.257-.121-.487-.361-.689-.23-.202-.559-.363-.983-.482a114.48 114.48 0 0 0-2.036-.455 28.83 28.83 0 0 1-1.8-.441 11.257 11.257 0 0 1-1.496-.538 4.172 4.172 0 0 1-1.136-.745 3.188 3.188 0 0 1-.72-1.061c-.166-.414-.249-.915-.249-1.503 0-.634.143-1.2.429-1.696a3.68 3.68 0 0 1 1.261-1.268c.545-.34 1.204-.598 1.981-.772.775-.184 1.652-.276 2.63-.276 1.754 0 3.088.211 4.003.634.923.414 1.385.956 1.385 1.627 0 .377-.125.666-.374.869-.25.193-.55.29-.9.29-.185 0-.379-.033-.582-.097a10.525 10.525 0 0 0-.706-.235 6.735 6.735 0 0 0-.997-.234 7.593 7.593 0 0 0-1.413-.11c-.425 0-.813.018-1.164.055a3.726 3.726 0 0 0-.886.193c-.24.092-.429.216-.567.372a.895.895 0 0 0-.194.593Zm14.47 5.061c0 .432.056.81.167 1.13.119.322.281.594.485.814.203.212.438.372.705.483.278.1.573.151.887.151.369 0 .725-.055 1.067-.165.341-.11.641-.28.9-.51.267-.23.48-.52.637-.869.156-.349.235-.758.235-1.227V18.26c0-.873.158-1.544.471-2.013.324-.469.873-.703 1.648-.703.822 0 1.408.234 1.759.703.36.469.54 1.14.54 2.013v8.437c0 .873-.18 1.544-.54 2.013-.351.469-.937.703-1.759.703-.775 0-1.324-.234-1.648-.703-.313-.469-.471-1.14-.471-2.013a4.524 4.524 0 0 1-.762 1.158c-.305.35-.664.653-1.08.91a5.295 5.295 0 0 1-1.357.58 5.856 5.856 0 0 1-1.593.206 5.128 5.128 0 0 1-1.787-.317 4.456 4.456 0 0 1-1.495-.965 4.778 4.778 0 0 1-1.039-1.6c-.258-.634-.387-1.373-.387-2.22v-6.19c0-.872.157-1.543.47-2.012.324-.469.872-.703 1.649-.703.821 0 1.407.234 1.758.703.361.469.54 1.14.54 2.013v6.038Zm11.507-6.038c0-.873.157-1.544.471-2.013.323-.469.872-.703 1.648-.703.822 0 1.408.234 1.759.703.36.469.54 1.14.54 2.013.185-.442.434-.841.749-1.2.322-.367.687-.68 1.093-.937a5.36 5.36 0 0 1 1.343-.593 5.24 5.24 0 0 1 2.909-.027c.47.119.905.316 1.302.592a4.17 4.17 0 0 1 1.066 1.02c.305.414.54.91.707 1.49a6.08 6.08 0 0 1 1.01-1.558 5.235 5.235 0 0 1 1.26-1.02 5.134 5.134 0 0 1 1.414-.552c.498-.11.996-.166 1.495-.166.591 0 1.154.106 1.69.317a3.85 3.85 0 0 1 1.426.966c.416.422.744.96.983 1.613.25.643.374 1.397.374 2.26v6.232c0 .873-.18 1.544-.54 2.013-.35.469-.937.703-1.759.703-.775 0-1.325-.234-1.647-.703-.315-.469-.472-1.14-.472-2.013V20.66c0-.414-.055-.782-.165-1.103a2.254 2.254 0 0 0-.472-.828 1.78 1.78 0 0 0-.692-.51 2.083 2.083 0 0 0-.858-.179c-.38 0-.739.06-1.08.18a2.464 2.464 0 0 0-.901.55 2.827 2.827 0 0 0-.61.952c-.148.386-.221.85-.221 1.393v5.583c0 .873-.181 1.544-.54 2.013-.351.469-.937.703-1.76.703-.775 0-1.324-.234-1.647-.703-.314-.469-.472-1.14-.472-2.013v-5.776c0-.947-.198-1.664-.594-2.151-.389-.487-.92-.73-1.593-.73-.397 0-.767.063-1.109.192a2.479 2.479 0 0 0-.886.565 2.717 2.717 0 0 0-.596.924c-.138.368-.207.79-.207 1.268v5.708c0 .873-.18 1.544-.54 2.013-.351.469-.937.703-1.759.703-.776 0-1.325-.234-1.648-.703-.314-.469-.471-1.14-.471-2.013V18.26ZM20.09 27.06c-3.915 0-7.09-3.16-7.09-7.058 0-3.899 3.175-7.06 7.09-7.06 3.917 0 7.092 3.161 7.092 7.06 0 3.898-3.175 7.058-7.091 7.058Z"/><path fill="#7B7B7B" d="M6.354 22.412c-2.055.361-3.463 2.337-2.675 4.26a17.653 17.653 0 0 0 5.136 6.946 17.778 17.778 0 0 0 11.586 4.027 17.773 17.773 0 0 0 11.437-4.427 17.647 17.647 0 0 0 4.889-7.12c.72-1.95-.756-3.875-2.822-4.164-2.067-.29-3.922 1.208-4.942 3.02a10.131 10.131 0 0 1-2.132 2.63 10.197 10.197 0 0 1-6.562 2.54 10.2 10.2 0 0 1-6.647-2.31 10.135 10.135 0 0 1-2.223-2.555c-1.084-1.775-2.99-3.207-5.045-2.847Z"/><path fill="#7B7B7B" d="M37.68 22.203c.091-.723.138-1.459.138-2.206 0-9.746-7.937-17.647-17.727-17.647S2.363 10.251 2.363 19.997c0 .959.077 1.9.225 2.816a5.535 5.535 0 0 1 3.458-2.142c1.485-.261 2.835.098 3.976.768a10.083 10.083 0 0 1-.103-1.442c0-5.592 4.554-10.125 10.172-10.125 5.617 0 10.17 4.533 10.17 10.125 0 .369-.02.733-.058 1.092 1.117-.71 2.454-1.116 3.948-.907 1.38.193 2.677.94 3.53 2.02Z"/></svg>