<svg xmlns="http://www.w3.org/2000/svg" width="158" height="40" fill="none"><path fill="#7B7B7B" d="M18 8.658V4H3v32h15v-4.657c-3.073 0-6.02-1.196-8.192-3.323A11.223 11.223 0 0 1 6.414 20c0-3.008 1.22-5.893 3.394-8.02A11.713 11.713 0 0 1 18 8.658ZM18 9v22a11 11 0 0 0 0-22Zm21.287 1.882h3.537v17h-3.537v-17Zm5.518 11.176a6.16 6.16 0 0 1 1.046-3.434 6.203 6.203 0 0 1 9.534-.92 6.172 6.172 0 0 1 1.32 6.743 6.179 6.179 0 0 1-2.296 2.764 6.2 6.2 0 0 1-3.449 1.024 6.117 6.117 0 0 1-4.379-1.797 6.094 6.094 0 0 1-1.776-4.38Zm8.867 0a2.677 2.677 0 0 0-1.708-2.427 2.693 2.693 0 0 0-2.905.626 2.68 2.68 0 0 0 1.925 4.554 2.622 2.622 0 0 0 2.503-1.698c.126-.337.181-.696.161-1.055h.024Zm17.439-5.821v11.07c0 3.906-3.066 5.565-6.167 5.565a5.907 5.907 0 0 1-5.53-2.823l2.984-1.718a2.672 2.672 0 0 0 2.664 1.47 2.363 2.363 0 0 0 2.485-1.478c.127-.323.18-.67.157-1.016v-1.07a4.16 4.16 0 0 1-3.408 1.506 5.902 5.902 0 0 1-4.169-1.723 5.875 5.875 0 0 1 0-8.319 5.902 5.902 0 0 1 4.169-1.723 4.17 4.17 0 0 1 3.407 1.506v-1.177l3.408-.07Zm-3.407 5.588a2.818 2.818 0 0 0-1.663-2.69 2.836 2.836 0 0 0-3.123.534 2.822 2.822 0 0 0 1.956 4.862 2.648 2.648 0 0 0 2.017-.726 2.636 2.636 0 0 0 .813-1.98Zm5.4.234c0-1.223.363-2.417 1.044-3.433a6.202 6.202 0 0 1 9.528-.93 6.173 6.173 0 0 1 1.334 6.734 6.18 6.18 0 0 1-2.285 2.77 6.2 6.2 0 0 1-3.443 1.035 6.13 6.13 0 0 1-4.39-1.792 6.105 6.105 0 0 1-1.788-4.384Zm8.867 0a2.679 2.679 0 0 0-1.71-2.429 2.694 2.694 0 0 0-2.907.632 2.68 2.68 0 0 0 1.94 4.55 2.62 2.62 0 0 0 2.504-1.7c.126-.336.18-.695.161-1.053h.012Zm5.131-8.943a2.091 2.091 0 0 1 1.295-1.934 2.103 2.103 0 0 1 2.287.454A2.093 2.093 0 0 1 89.2 15.21a2.125 2.125 0 0 1-1.477-.62 2.115 2.115 0 0 1-.621-1.475Zm.341 3.118h3.538v11.647h-3.537V16.234Zm18.676 5.823a5.894 5.894 0 0 1-.336 2.28 5.898 5.898 0 0 1-3.046 3.345 5.91 5.91 0 0 1-2.242.551 4.395 4.395 0 0 1-3.538-1.423v5.753H93.42v-16.33h3.537v1.095a4.376 4.376 0 0 1 3.538-1.412 5.903 5.903 0 0 1 4.086 1.908 5.87 5.87 0 0 1 1.538 4.233Zm-3.537 0a2.778 2.778 0 0 0-3.372-2.643 2.784 2.784 0 0 0-2.146 2.205 2.77 2.77 0 0 0 1.205 2.827c.458.3.994.46 1.542.458a2.669 2.669 0 0 0 2.616-1.746c.129-.352.181-.727.155-1.101Zm14.303 2.33c0 2.682-2.358 3.824-4.858 3.824a5.113 5.113 0 0 1-5.023-2.776l3.042-1.719a1.91 1.91 0 0 0 1.969 1.377c.837 0 1.262-.259 1.262-.73 0-1.282-5.743-.6-5.743-4.635 0-2.54 2.146-3.812 4.575-3.812a5.128 5.128 0 0 1 4.623 2.483l-3.043 1.6a1.717 1.717 0 0 0-1.568-1.024c-.613 0-.978.236-.978.647 0 1.342 5.742.46 5.742 4.765Zm12.817-8.153V27.88h-3.538v-1.094a4.024 4.024 0 0 1-3.325 1.447c-2.358 0-4.374-1.683-4.374-4.824v-7.176h3.537v6.647a1.935 1.935 0 0 0 2.04 2.118c1.273 0 2.17-.754 2.17-2.354v-6.411h3.49Zm20.045 4.495v7.153h-3.538v-6.847c0-1.177-.554-1.906-1.674-1.906-1.12 0-1.828.811-1.828 2.188v6.565h-3.537v-6.847c0-1.177-.554-1.906-1.674-1.906-1.12 0-1.828.811-1.828 2.188v6.565h-3.537V16.235h3.537v1.07a3.605 3.605 0 0 1 3.137-1.388 3.46 3.46 0 0 1 3.053 1.53 3.855 3.855 0 0 1 3.385-1.53c2.759 0 4.504 1.906 4.504 4.812Zm2.971-4.563a2.591 2.591 0 0 0 2.594-2.588 2.59 2.59 0 0 0-2.594-2.588 2.59 2.59 0 0 0-2.594 2.588 2.591 2.591 0 0 0 2.594 2.588Z"/></svg>