<svg xmlns="http://www.w3.org/2000/svg" width="187" height="40" fill="none"><g fill="#7B7B7B" clip-path="url(#a)"><path fill-rule="evenodd" d="M22.276 6.817 24.814 3l7.193 3.608-2.536 3.816c-.446.67.221 1.483 1.095 1.337l4.86-.815L37 18.031l-4.861.814c-7.863 1.317-13.867-6.004-9.863-12.028Zm-3.632 26.366L15.948 37l-7.644-3.607L11 29.576c.473-.67-.235-1.483-1.164-1.337l-5.164.814L3 21.969l5.165-.814c8.355-1.317 14.733 6.004 10.48 12.028Z" clip-rule="evenodd"/><path fill-rule="evenodd" d="M18.642 6.817 15.947 3 8.303 6.608 11 10.424c.472.67-.235 1.483-1.164 1.337l-5.165-.815L3 18.031l5.164.814C16.52 20.162 22.9 12.84 18.644 6.817h-.002Zm3.636 26.366L24.813 37l7.195-3.607-2.538-3.817c-.444-.67.222-1.483 1.097-1.337l4.86.814L37 21.969l-4.861-.814c-7.864-1.317-13.866 6.004-9.863 12.028h.002Z" clip-rule="evenodd"/><path d="M163.114 30.154v-8.5c0-1.178.271-2.235.813-3.17.561-.954 1.356-1.702 2.385-2.245 1.029-.542 2.254-.813 3.675-.813a7.228 7.228 0 0 1 1.964.252 6.31 6.31 0 0 1 1.627.645c.505.262.935.58 1.291.954h.056a5.48 5.48 0 0 1 1.29-.954 6.766 6.766 0 0 1 1.656-.645 7.543 7.543 0 0 1 1.992-.252c1.421 0 2.646.27 3.675.813 1.028.543 1.823 1.29 2.384 2.245.562.935.842 1.99.842 3.17v8.5h-4.377v-8.36c0-.467-.121-.888-.364-1.262a2.665 2.665 0 0 0-.926-.954 2.509 2.509 0 0 0-1.347-.365 2.65 2.65 0 0 0-1.374.365 2.653 2.653 0 0 0-.926.954 2.394 2.394 0 0 0-.337 1.262v8.36h-4.348v-8.36c0-.467-.122-.888-.365-1.262a2.585 2.585 0 0 0-.954-.954 2.509 2.509 0 0 0-1.347-.365 2.65 2.65 0 0 0-1.374.365 2.653 2.653 0 0 0-.926.954 2.413 2.413 0 0 0-.337 1.262v8.36h-4.348Zm-9.511.337c-1.477 0-2.759-.28-3.843-.842-1.066-.58-1.889-1.356-2.469-2.328-.58-.991-.87-2.086-.87-3.283v-8.276h4.349v8.164c0 .505.121.973.364 1.403a3 3 0 0 0 .982 1.01c.43.243.917.365 1.459.365.524 0 .991-.122 1.403-.365.43-.262.767-.6 1.01-1.01.243-.43.365-.898.365-1.403v-8.164h4.348v8.276c0 1.197-.281 2.292-.842 3.283-.561.972-1.374 1.749-2.44 2.328-1.048.56-2.32.842-3.816.842Zm-21.189-.337v-3.45h6.93c.187 0 .355-.038.505-.113a1.13 1.13 0 0 0 .364-.364.926.926 0 0 0 0-.982.9.9 0 0 0-.364-.337.936.936 0 0 0-.505-.14h-2.525c-.936 0-1.787-.15-2.553-.45a4.05 4.05 0 0 1-1.796-1.458c-.43-.673-.645-1.543-.645-2.61 0-.822.196-1.57.589-2.243a4.76 4.76 0 0 1 1.655-1.628 4.566 4.566 0 0 1 2.329-.617h6.929v3.479h-6.256a.971.971 0 0 0-.673.253.834.834 0 0 0-.253.617c0 .262.085.486.253.673a.971.971 0 0 0 .673.253h2.469c1.047 0 1.945.159 2.693.476.767.3 1.356.786 1.768 1.46.43.673.645 1.542.645 2.608 0 .842-.215 1.609-.645 2.3a4.608 4.608 0 0 1-1.684 1.656c-.692.412-1.477.617-2.356.617h-7.547Zm-9.474-14.728c1.216 0 2.291.196 3.226.589.918.35 1.744.906 2.413 1.627a6.985 6.985 0 0 1 1.543 2.469c.355.935.533 1.973.533 3.114 0 1.42-.299 2.684-.898 3.787a6.47 6.47 0 0 1-2.412 2.553c-1.029.617-2.226.926-3.591.926-.58 0-1.132-.075-1.656-.224a5.309 5.309 0 0 1-1.402-.646 3.892 3.892 0 0 1-1.038-1.038h-.085v7.66h-4.348v-13.02c0-1.59.318-2.964.954-4.123a6.667 6.667 0 0 1 2.693-2.694c1.16-.654 2.516-.981 4.068-.981Zm0 3.759c-.673 0-1.262.168-1.767.505-.487.318-.861.767-1.123 1.347-.261.56-.392 1.197-.392 1.907s.131 1.347.392 1.908a3.3 3.3 0 0 0 1.123 1.347c.505.318 1.094.477 1.767.477.673 0 1.253-.16 1.739-.477.489-.34.877-.805 1.123-1.347.28-.561.42-1.197.42-1.908 0-.71-.14-1.346-.42-1.907-.262-.58-.636-1.03-1.123-1.347-.486-.337-1.066-.505-1.739-.505Zm-14.323 10.969V15.762h4.377v14.392h-4.377Zm2.188-16.02c-.692 0-1.29-.251-1.795-.756-.505-.505-.758-1.104-.758-1.796s.253-1.29.758-1.795c.505-.524 1.103-.786 1.795-.786s1.291.262 1.796.786c.505.505.757 1.103.757 1.795s-.252 1.29-.757 1.796c-.505.505-1.104.757-1.796.757Zm-11.7 16.357c-1.477 0-2.805-.327-3.984-.982a7.462 7.462 0 0 1-2.805-2.693c-.673-1.141-1.01-2.422-1.01-3.844 0-1.44.337-2.721 1.01-3.843a7.462 7.462 0 0 1 2.805-2.693c1.179-.674 2.507-1.01 3.984-1.01 1.478 0 2.796.336 3.956 1.01a7.256 7.256 0 0 1 2.777 2.693c.692 1.122 1.038 2.403 1.038 3.843 0 1.422-.346 2.703-1.038 3.844a7.256 7.256 0 0 1-2.777 2.693c-1.178.655-2.497.982-3.956.982Zm0-3.787c.692 0 1.291-.17 1.796-.505a3.422 3.422 0 0 0 1.178-1.347c.281-.561.421-1.197.421-1.908 0-.692-.14-1.318-.421-1.88a3.42 3.42 0 0 0-1.178-1.346c-.505-.337-1.104-.505-1.796-.505s-1.3.168-1.823.505a3.428 3.428 0 0 0-1.179 1.347 4.144 4.144 0 0 0-.42 1.88c0 .71.14 1.346.42 1.907a3.43 3.43 0 0 0 1.179 1.347c.523.336 1.131.505 1.823.505ZM77.174 35.85v-3.732h7.181a.952.952 0 0 0 .702-.28.831.831 0 0 0 .28-.646v-3.17h-.084c-.355.413-.76.78-1.206 1.094-.412.3-.88.524-1.403.674a6.021 6.021 0 0 1-1.711.224c-1.272 0-2.413-.3-3.423-.898-.991-.617-1.777-1.468-2.357-2.553-.56-1.084-.841-2.32-.841-3.703 0-1.365.29-2.61.87-3.731.598-1.122 1.468-2.02 2.609-2.693 1.14-.674 2.534-1.01 4.18-1.01 1.571 0 2.927.327 4.068.982a6.625 6.625 0 0 1 2.693 2.72c.636 1.16.954 2.526.954 4.097v8.416c0 1.29-.383 2.31-1.15 3.058-.748.767-1.786 1.15-3.114 1.15h-8.248Zm4.825-9.483c.673 0 1.253-.15 1.74-.45a3.18 3.18 0 0 0 1.121-1.261c.266-.541.4-1.138.393-1.74 0-.673-.13-1.29-.392-1.851a3.103 3.103 0 0 0-1.123-1.32c-.486-.336-1.066-.504-1.74-.504-.654 0-1.234.159-1.739.477-.486.318-.86.748-1.122 1.29-.261.543-.392 1.15-.392 1.824 0 .655.13 1.253.392 1.796.262.523.636.944 1.123 1.262.504.318 1.084.477 1.739.477ZM65.473 30.49c-1.477 0-2.805-.327-3.983-.982a7.46 7.46 0 0 1-2.806-2.693c-.673-1.141-1.01-2.422-1.01-3.844 0-1.44.337-2.721 1.01-3.843a7.46 7.46 0 0 1 2.806-2.693c1.178-.674 2.506-1.01 3.983-1.01 1.478 0 2.796.336 3.956 1.01a7.253 7.253 0 0 1 2.777 2.693c.692 1.122 1.038 2.403 1.038 3.843 0 1.422-.346 2.703-1.038 3.844a7.252 7.252 0 0 1-2.777 2.693c-1.178.655-2.497.982-3.956.982Zm0-3.787c.692 0 1.29-.17 1.796-.505a3.43 3.43 0 0 0 1.178-1.347c.28-.561.42-1.197.42-1.908 0-.692-.14-1.318-.42-1.88a3.43 3.43 0 0 0-1.178-1.346c-.505-.337-1.104-.505-1.796-.505s-1.3.168-1.823.505a3.428 3.428 0 0 0-1.179 1.347 4.145 4.145 0 0 0-.42 1.88c0 .71.14 1.346.42 1.907a3.43 3.43 0 0 0 1.179 1.347c.523.336 1.131.505 1.823.505Zm-13.926 3.45c-1.216 0-2.282-.27-3.198-.813a5.763 5.763 0 0 1-2.132-2.16c-.505-.898-.758-1.89-.758-2.974v-13.69h4.713v14.027c0 .45.16.842.477 1.179.318.336.71.505 1.178.505h5.19v3.927h-5.47Z"/></g><defs><clipPath id="a"><path fill="#fff" d="M0 0h187v40H0z"/></clipPath></defs></svg>