<svg xmlns="http://www.w3.org/2000/svg" width="192" height="24" fill="none"><path fill="#7B7B7B" d="M95.612 20.682h-6.467V3.392h6.467v17.29Zm-5.836-.632h5.204V4.023h-5.204V20.05Zm14.835.632h-6.338V3.392h13.241a7.942 7.942 0 0 1 5.323 1.5 5.82 5.82 0 0 1 1.868 4.822 6.144 6.144 0 0 1-1.375 4.263c-1.159 1.329-3.086 2.013-5.729 2.037-.666.018-5.654 0-6.986 0l-.004 4.668Zm-5.71-.632h5.078v-4.674h.317c.065 0 6.541.02 7.29 0 2.462-.021 4.232-.631 5.266-1.822a5.55 5.55 0 0 0 1.213-3.842 5.242 5.242 0 0 0-1.642-4.336 7.363 7.363 0 0 0-4.918-1.354h-12.6l-.004 16.028Zm11.271-7.92h-6.236V7.424h6.278a2.668 2.668 0 0 1 2.4.918c.264.438.388.946.356 1.456.024.474-.078.946-.296 1.367a2.738 2.738 0 0 1-2.502.96v.005Zm-5.604-.632h5.604c1.036 0 1.678-.215 1.962-.66.157-.323.228-.681.206-1.04a1.957 1.957 0 0 0-.235-1.083l-.007-.012c-.301-.442-.899-.648-1.884-.648h-5.646V11.5Zm25.663 9.439c-5.671 0-9.056-1.409-10.346-4.305a7.518 7.518 0 0 1-.427-1.736l-.056-.363h6.748l.044.265c.052.27.167.523.334.74.266.322 1.156.863 4.106.863 3.547 0 3.547-.623 3.547-.958 0-.564-.41-.758-3.303-1.066l-.549-.052c-1.089-.102-2.466-.232-3.095-.286-5.305-.48-7.674-2.129-7.674-5.343 0-3.377 4.031-5.558 10.27-5.558 5.089 0 8.368 1.341 9.744 3.99.326.616.545 1.283.648 1.973l.044.355h-6.755l-.028-.285a1.077 1.077 0 0 0-.273-.6c-.253-.338-1.051-.897-3.529-.897-3.043 0-3.463.389-3.463.808 0 .56.962.758 4.042 1.088 1.285.105 3.35.317 4.058.403 4.447.482 6.432 2.09 6.432 5.215.001 2.621-1.824 5.749-10.519 5.749Zm-10.091-5.773c.063.417.172.825.325 1.218 1.174 2.639 4.37 3.923 9.766 3.923 4.512 0 9.892-.884 9.892-5.117 0-2.77-1.756-4.142-5.872-4.588-.708-.085-2.76-.296-4.042-.402-3.285-.357-4.62-.546-4.62-1.716 0-1.21 1.439-1.44 4.094-1.44 2.098 0 3.454.38 4.028 1.143.157.189.276.406.349.64h5.475a5.712 5.712 0 0 0-.518-1.404c-1.263-2.424-4.349-3.652-9.185-3.652-5.854 0-9.638 1.934-9.638 4.927 0 2.854 2.124 4.264 7.098 4.714.632.054 2.007.184 3.099.288l.553.051c2.687.283 3.871.46 3.871 1.694 0 1.33-1.532 1.59-4.178 1.59-2.448 0-3.994-.368-4.592-1.092a2.34 2.34 0 0 1-.409-.777h-5.496Zm32.61 5.751c-6.594 0-10.232-2.666-10.232-7.51V3.393h6.382v10.014c0 1.661 1.486 2.613 4.077 2.613 2.476 0 4.013-.994 4.013-2.592V3.392h6.316v10.544c.006 4.435-3.845 6.98-10.56 6.98h.004Zm-9.6-16.892v9.383c0 5.985 6.01 6.878 9.6 6.878 3.711 0 9.934-.825 9.934-6.348V4.023h-5.052v9.404c0 1.958-1.824 3.224-4.645 3.224-2.948 0-4.709-1.213-4.709-3.245V4.023h-5.128Zm46.92 16.659h-6.023v-7.807l-3.416 7.807h-5.253l-3.38-7.791v7.79h-6.044V3.392h7.95l4.13 9.534 4.33-9.533h7.713l-.007 17.29Zm-5.391-.632h4.759V4.023h-6.672l-4.752 10.458-4.53-10.458h-6.904V20.05h4.781V9.851l4.421 10.203h4.421l4.468-10.187.008 10.183ZM7.647 3.707H1.895v16.659H17.79V15.93H7.647V3.707Zm21.754-.379c-7.343 0-11.204 3.48-11.204 8.59 0 5.773 4.053 8.7 11.204 8.7 7.872 0 11.183-3.395 11.183-8.7 0-5.387-3.735-8.592-11.183-8.592v.002Zm-.021 4.33c.5-.003.999.026 1.495.086l-6.43 6.431a5.106 5.106 0 0 1-.435-2.188c0-2.613 1.316-4.332 5.37-4.332v.002Zm.021 8.7c-.482.002-.963-.025-1.441-.08l6.442-6.443a5.02 5.02 0 0 1 .41 2.147c0 2.543-1.212 4.373-5.41 4.373v.003Zm22.58-2.274h5.92a2.694 2.694 0 0 1-.53 1.124A6.133 6.133 0 0 1 53 16.566a5.57 5.57 0 0 1-4.392-1.464 4.715 4.715 0 0 1-.807-2.992 4.607 4.607 0 0 1 .87-3.119c.828-.935 2.229-1.338 4.288-1.338a5.844 5.844 0 0 1 3.713.955c.346.275.604.643.743 1.061h5.491a5.659 5.659 0 0 0-.489-1.994c-1.315-2.674-4.372-4.266-9.57-4.266-4.52 0-7.554 1.38-9.23 3.46a8.298 8.298 0 0 0-1.614 5.2 8.757 8.757 0 0 0 1.577 5.349c1.656 2.147 4.605 3.203 8.15 3.203a10.184 10.184 0 0 0 6.62-1.867l.149 1.612h4.561v-9.868H51.981v3.586Zm24.024-10.76c-7.341 0-11.204 3.48-11.204 8.59 0 5.773 4.052 8.7 11.204 8.7 7.874 0 11.184-3.395 11.184-8.7 0-5.383-3.735-8.588-11.184-8.588v-.001Zm-.02 4.33c.487-.002.973.026 1.457.083l-6.406 6.41a5.124 5.124 0 0 1-.42-2.16c-.006-2.613 1.316-4.334 5.37-4.334Zm.02 8.7a11.89 11.89 0 0 1-1.479-.086l6.464-6.465c.304.686.45 1.432.425 2.182.003 2.54-1.205 4.37-5.41 4.37Z"/></svg>