<svg xmlns="http://www.w3.org/2000/svg" width="40" height="40" fill="none"><g clip-path="url(#a)"><path fill="#FBBB00" d="M8.865 24.173 7.472 29.37l-5.088.108A19.91 19.91 0 0 1 0 20c0-3.316.807-6.444 2.236-9.198h.001l4.531.83 1.985 4.504A11.888 11.888 0 0 0 8.11 20c0 1.468.266 2.875.754 4.173Z"/><path fill="#518EF8" d="M39.65 16.264c.23 1.21.35 2.459.35 3.736 0 1.432-.15 2.828-.437 4.176a19.995 19.995 0 0 1-7.042 11.42h-.001l-5.707-.292-.807-5.041a11.92 11.92 0 0 0 5.128-6.087H20.44v-7.912h19.21Z"/><path fill="#28B446" d="m32.52 35.595.001.002A19.916 19.916 0 0 1 20.001 40c-7.617 0-14.24-4.257-17.617-10.522l6.481-5.306C10.555 28.68 14.902 31.89 20 31.89a11.82 11.82 0 0 0 6.006-1.627l6.514 5.333Z"/><path fill="#F14336" d="m32.766 4.604-6.48 5.305A11.822 11.822 0 0 0 20 8.11c-5.213 0-9.643 3.356-11.247 8.025l-6.516-5.334C5.564 4.385 12.27 0 20 0a19.92 19.92 0 0 1 12.766 4.604Z"/></g><defs><clipPath id="a"><path fill="#fff" d="M0 0h40v40H0z"/></clipPath></defs></svg>