<svg xmlns="http://www.w3.org/2000/svg" width="50" height="50" fill="none"><path fill="#FF7F49" d="M49.611 1.982A1.953 1.953 0 0 0 48.018.39c-1.38-.236-5.055-.713-9.396-.054-5.417.823-9.992 3.068-13.599 6.674l-2.291 2.292a27.202 27.202 0 0 0-9.873 1.524 27.234 27.234 0 0 0-8.593 4.917 1.955 1.955 0 0 0-.119 2.872l4.636 4.635-.692.693c-.762.761-.762 2 0 2.762l2.176 2.175a9.79 9.79 0 0 0-4.851 1.99 1.94 1.94 0 0 0-.743 1.41 1.958 1.958 0 0 0 .57 1.505l2.724 2.725a.974.974 0 0 0 1.38 0 .977.977 0 0 0 0-1.381l-2.721-2.726a7.852 7.852 0 0 1 5.562-1.601l7.011 7.011a7.854 7.854 0 0 1-1.602 5.565l-2.725-2.725a.977.977 0 0 0-1.38 1.381l2.724 2.725a1.96 1.96 0 0 0 1.506.569 1.94 1.94 0 0 0 1.41-.742 9.79 9.79 0 0 0 1.988-4.852l2.176 2.176c.381.38.881.571 1.381.571s1-.19 1.382-.571l.692-.692 4.636 4.636a1.96 1.96 0 0 0 1.463.57 1.956 1.956 0 0 0 1.408-.69 27.233 27.233 0 0 0 4.917-8.592 27.19 27.19 0 0 0 1.525-9.873l2.291-2.291c3.606-3.606 5.852-8.182 6.674-13.599.66-4.341.182-8.017-.054-9.396Zm-1.925.33c.307 1.794.815 6.19-.394 11.072L36.615 2.707c4.883-1.208 9.278-.7 11.071-.395ZM5.526 17.234a25.285 25.285 0 0 1 7.98-4.566 25.23 25.23 0 0 1 7.261-1.403L10.164 21.87l-4.637-4.635Zm19.151 23.294L9.472 25.323l2.766-2.766 15.205 15.206-2.766 2.765Zm12.655-4.033a25.285 25.285 0 0 1-4.564 7.977l-4.636-4.636 10.603-10.603a25.227 25.227 0 0 1-1.403 7.262Zm4.278-12.9L28.824 36.382 13.619 21.176 26.404 8.39c2.512-2.51 5.325-4.085 8.082-5.05L46.66 15.514c-.964 2.757-2.539 5.57-5.05 8.082Z"/><path fill="#FF7F49" d="M30.897 11.778a7.277 7.277 0 0 0-5.18 2.146c-2.855 2.855-2.855 7.502 0 10.358a7.302 7.302 0 0 0 5.18 2.142 7.301 7.301 0 0 0 5.18-2.142 7.276 7.276 0 0 0 2.145-5.18 7.277 7.277 0 0 0-2.146-5.178 7.276 7.276 0 0 0-5.18-2.146Zm3.798 11.123a5.353 5.353 0 0 1-3.798 1.57 5.356 5.356 0 0 1-3.798-1.57 5.377 5.377 0 0 1 0-7.596 5.336 5.336 0 0 1 3.798-1.573c1.435 0 2.784.558 3.798 1.573a5.336 5.336 0 0 1 1.573 3.798 5.336 5.336 0 0 1-1.573 3.798ZM8.657 41.343a.977.977 0 0 0-1.38 0l-6.99 6.99a.977.977 0 0 0 1.38 1.381l6.99-6.99a.977.977 0 0 0 0-1.381Zm-7.68 1.751c.25 0 .5-.095.69-.286l3.538-3.537a.977.977 0 0 0-1.382-1.381L.286 41.427a.977.977 0 0 0 .69 1.667Zm9.753 1.701-3.538 3.538a.977.977 0 0 0 1.38 1.38l3.538-3.537a.977.977 0 1 0-1.38-1.38Zm.69-5.238a.977.977 0 1 0 0-1.953.977.977 0 0 0 0 1.953Z"/></svg>