<svg xmlns="http://www.w3.org/2000/svg" width="50" height="50" fill="none"><g fill="#FF7F49" clip-path="url(#a)"><path d="M43.702 6.298A21.362 21.362 0 0 0 28.497 0a21.362 21.362 0 0 0-15.204 6.298 21.89 21.89 0 0 0-.866.917.734.734 0 1 0 1.096.976c.26-.29.53-.578.808-.855a19.904 19.904 0 0 1 14.166-5.868 19.903 19.903 0 0 1 14.167 5.868c7.812 7.812 7.812 20.522 0 28.333a19.904 19.904 0 0 1-14.167 5.869 19.903 19.903 0 0 1-14.166-5.868 20.063 20.063 0 0 1-5.78-12.273 20.094 20.094 0 0 1 3.242-12.964.734.734 0 0 0-1.222-.812 21.558 21.558 0 0 0-3.48 13.914 21.524 21.524 0 0 0 3.925 10.484l-2.155 2.156a.734.734 0 0 0-1.038 0l-6.582 6.582a4.249 4.249 0 0 0 0 6.002A4.23 4.23 0 0 0 4.242 50a4.231 4.231 0 0 0 3.001-1.241l1.86-1.86a.734.734 0 1 0-1.037-1.038l-1.86 1.86a2.758 2.758 0 0 1-1.964.813 2.758 2.758 0 0 1-1.963-.813 2.758 2.758 0 0 1-.813-1.963c0-.742.289-1.439.813-1.963l6.063-6.064 3.926 3.927-2.127 2.127a.734.734 0 1 0 1.038 1.038l2.646-2.646a.734.734 0 0 0 0-1.038l2.151-2.15a21.35 21.35 0 0 0 12.521 4.017 21.362 21.362 0 0 0 15.205-6.298A21.362 21.362 0 0 0 50 21.503a21.362 21.362 0 0 0-6.298-15.205ZM12.788 40.101l-2.89-2.889 2.02-2.019a21.426 21.426 0 0 0 2.887 2.891l-2.017 2.017Z"/><path d="M36.005 37.148a17.311 17.311 0 0 0 4.76-3.378c6.764-6.764 6.764-17.77 0-24.534C34 2.47 22.995 2.47 16.23 9.236c-6.764 6.764-6.764 17.77 0 24.534a17.388 17.388 0 0 0 16.904 4.453.734.734 0 0 0-.391-1.414 15.923 15.923 0 0 1-15.475-4.077c-6.192-6.192-6.192-16.267 0-22.459 6.192-6.191 16.267-6.192 22.459 0s6.192 16.267 0 22.46a15.85 15.85 0 0 1-4.357 3.092.734.734 0 0 0 .635 1.323Z"/><path d="M29.381 18.159a.734.734 0 1 0 0-1.468h-3.436a.734.734 0 0 0-.734.734v8.156c0 .405.329.734.734.734h3.436a.734.734 0 1 0 0-1.468H26.68v-2.61h2.449a.734.734 0 1 0 0-1.468h-2.45v-2.61h2.703Zm-8.699 6.725c-.9 0-1.769-.366-2.324-.979a.734.734 0 1 0-1.088.986c.83.915 2.105 1.461 3.412 1.461 1.566 0 2.93-1.027 3.174-2.389.28-1.57-.955-2.623-2.205-3.084a44.085 44.085 0 0 1-2.29-.926.859.859 0 0 1-.343-.834c.06-.419.383-.755.862-.9 1.322-.398 2.515.56 2.538.578a.734.734 0 0 0 .941-1.125c-.072-.061-1.805-1.49-3.902-.858-1.025.309-1.75 1.112-1.892 2.097a2.324 2.324 0 0 0 1.037 2.3c.032.022.066.04.101.056.048.021 1.172.522 2.44.99.91.335 1.372.863 1.268 1.449-.103.571-.743 1.178-1.729 1.178Zm19.855-3.381a4.855 4.855 0 0 0-4.85-4.85 4.855 4.855 0 0 0-4.85 4.85 4.855 4.855 0 0 0 4.85 4.85 4.855 4.855 0 0 0 4.85-4.85Zm-8.231 0a3.386 3.386 0 0 1 3.381-3.382 3.386 3.386 0 0 1 3.382 3.382 3.386 3.386 0 0 1-3.382 3.382 3.386 3.386 0 0 1-3.381-3.382Z"/></g><defs><clipPath id="a"><path fill="#fff" d="M0 0h50v50H0z"/></clipPath></defs></svg>