<svg xmlns="http://www.w3.org/2000/svg" width="43" height="40" fill="none"><path fill="#FF7F49" d="M16.754 17.582a.613.613 0 0 0-.43.112.54.54 0 0 0-.222.363l-.261 1.958-.64-1.197a.562.562 0 0 0-.214-.22.614.614 0 0 0-.614 0 .562.562 0 0 0-.215.22l-.64 1.197-.26-1.958a.541.541 0 0 0-.225-.355.613.613 0 0 0-.81.095.523.523 0 0 0-.124.396l.5 3.75a.536.536 0 0 0 .158.31.619.619 0 0 0 .685.11.566.566 0 0 0 .258-.243l.98-1.835.979 1.835c.056.104.147.19.258.242a.619.619 0 0 0 .685-.11.534.534 0 0 0 .158-.31l.5-3.75a.512.512 0 0 0-.118-.403.576.576 0 0 0-.172-.14.614.614 0 0 0-.216-.067Zm6.673 0a.621.621 0 0 0-.431.111.56.56 0 0 0-.15.162.522.522 0 0 0-.071.202l-.262 1.958-.639-1.197a.563.563 0 0 0-.215-.22.614.614 0 0 0-.613 0 .562.562 0 0 0-.216.22l-.639 1.197-.261-1.958a.541.541 0 0 0-.225-.355.613.613 0 0 0-.81.095.523.523 0 0 0-.124.396l.5 3.75a.551.551 0 0 0 .158.31.619.619 0 0 0 .685.11.566.566 0 0 0 .259-.243l.98-1.835.978 1.835c.057.104.147.19.259.242a.619.619 0 0 0 .685-.11.534.534 0 0 0 .158-.31l.5-3.75a.514.514 0 0 0-.118-.403.576.576 0 0 0-.172-.14.613.613 0 0 0-.216-.067Zm6.673 0a.62.62 0 0 0-.432.111.56.56 0 0 0-.149.162.524.524 0 0 0-.071.202l-.262 1.958-.639-1.197a.563.563 0 0 0-.215-.22.614.614 0 0 0-.614 0 .562.562 0 0 0-.215.22l-.64 1.197-.26-1.958a.541.541 0 0 0-.225-.355.613.613 0 0 0-.81.095.523.523 0 0 0-.124.396l.5 3.75a.54.54 0 0 0 .158.31.619.619 0 0 0 .685.11.566.566 0 0 0 .258-.243l.98-1.835.98 1.835c.055.104.146.19.258.242a.619.619 0 0 0 .685-.11.534.534 0 0 0 .157-.31l.5-3.75a.514.514 0 0 0-.118-.403.575.575 0 0 0-.172-.14.613.613 0 0 0-.216-.067Z"/><path fill="#FF7F49" d="M21.352 1.64c-3.876 0-7.666 1.077-10.89 3.095-3.223 2.017-5.735 4.884-7.218 8.24a17.282 17.282 0 0 0-1.116 10.607c.756 3.561 2.623 6.832 5.364 9.4 2.742 2.568 6.234 4.316 10.036 5.025 3.803.708 7.744.344 11.325-1.045 3.582-1.39 6.643-3.743 8.797-6.762 2.154-3.02 3.303-6.569 3.303-10.2-.006-4.867-2.073-9.534-5.747-12.976-3.675-3.442-8.657-5.378-13.854-5.383Zm0 35.626c-2.48 0-4.776-2.988-6.142-7.657h12.284c-1.365 4.67-3.662 7.657-6.142 7.657Zm-6.437-8.75a31.434 31.434 0 0 1-.584-2.97h14.043a31.79 31.79 0 0 1-.585 2.97H14.915Zm-11.981-7.97H8.09v3.204c0 .476.202.933.562 1.27.36.337.847.526 1.356.527h3.144c.15 1.038.34 2.031.564 2.969h-8.39a16.335 16.335 0 0 1-2.393-7.97ZM21.352 2.735c2.48 0 4.777 2.988 6.142 7.657H15.21c1.366-4.67 3.662-7.657 6.142-7.657Zm6.437 8.75c.234.936.43 1.928.585 2.97H14.33c.155-1.042.352-2.034.584-2.97H27.79Zm-17.78 12.97a.778.778 0 0 1-.53-.207.682.682 0 0 1-.22-.497v-7.5c0-.186.079-.365.22-.497a.778.778 0 0 1 .53-.206h22.687c.199 0 .39.074.53.206a.68.68 0 0 1 .22.497v7.5a.681.681 0 0 1-.22.497.778.778 0 0 1-.53.206H10.009Zm3.144-10H10.01c-.509 0-.996.19-1.356.526a1.74 1.74 0 0 0-.562 1.27v3.203H2.934c.09-2.8.912-5.535 2.393-7.969h8.39a32.993 32.993 0 0 0-.564 2.97Zm16.398 11.093h3.145c.508 0 .996-.19 1.355-.527.36-.337.563-.794.563-1.27v-3.203h5.157a16.344 16.344 0 0 1-2.393 7.969h-8.39c.224-.939.413-1.931.563-2.97Zm5.063-6.094V16.25c0-.476-.203-.933-.563-1.27a1.988 1.988 0 0 0-1.355-.527H29.55a33.029 33.029 0 0 0-.564-2.969h8.39a16.336 16.336 0 0 1 2.394 7.97h-5.157Zm2.045-9.062h-7.957c-.944-3.34-2.355-5.906-4.033-7.371a19.2 19.2 0 0 1 6.79 2.55 17.95 17.95 0 0 1 5.2 4.82ZM18.035 3.02c-1.678 1.465-3.09 4.03-4.032 7.37H6.046a17.95 17.95 0 0 1 5.2-4.82 19.2 19.2 0 0 1 6.79-2.55ZM6.046 29.61h7.957c.942 3.34 2.354 5.906 4.032 7.37a19.199 19.199 0 0 1-6.79-2.55 17.949 17.949 0 0 1-5.199-4.82Zm18.623 7.37c1.678-1.465 3.09-4.03 4.032-7.37h7.958a17.948 17.948 0 0 1-5.2 4.82 19.2 19.2 0 0 1-6.79 2.55Z"/></svg>