<svg xmlns="http://www.w3.org/2000/svg" width="50" height="50" fill="none"><path fill="#FF7F49" d="M15.002 40.164c2.474 0 4.855-.599 6.983-1.722l3.838 6.591c2.014 3.702 7.494 4.396 10.392 1.345 3.059-2.895 2.35-8.372-1.345-10.392l-6.608-3.847c1.886-3.609 2.279-7.918.921-11.863-.232-.928-1.647-.753-1.64.215 3.095 8.649-3.257 18.072-12.541 18.007-7.164.147-13.481-6.168-13.333-13.333-.137-9.105 9.375-15.731 17.882-12.532 1.03.362 1.593-1.18.568-1.567C10.55 7.467-.154 14.922.003 25.166c-.167 8.058 6.939 15.165 14.999 14.998Zm10.605-4.394a14.787 14.787 0 0 0 1.802-2.2l6.622 3.856c2.765 1.51 3.294 5.608 1.005 7.774-2.166 2.281-6.268 1.761-7.773-1.005l-3.85-6.613a15.164 15.164 0 0 0 2.194-1.812Z"/><path fill="#FF7F49" d="M18.99 16.908c.99.461 1.704-1.009.724-1.5a10.858 10.858 0 0 0-12.377 2.094c-6.803 6.792-1.861 18.56 7.665 18.49 8.646.095 13.97-9.986 8.845-17.084-.636-.885-1.984.072-1.358.965a9.147 9.147 0 0 1-1 11.777c-3.578 3.569-9.397 3.568-12.972.002-7.146-7.422 1.13-19.06 10.472-14.744Z"/><path fill="#FF7F49" d="M14.464 25.802a.833.833 0 0 0 1.174-.099l7.089-8.379c1.108.586 2.625.38 3.548-.43l4.674 3.398c-.514 1.557.751 3.234 2.385 3.207 1.828.047 3.106-2.06 2.209-3.646l8.624-9.24V13.5c.017 1.093 1.648 1.098 1.667 0v-5A.865.865 0 0 0 45 7.667h-5c-1.092.018-1.097 1.648 0 1.667h3.082l-8.752 9.375c-.752-.349-1.748-.246-2.409.232l-4.658-3.387c.895-2.112-.795-4.602-3.095-4.554-2.636-.08-4.296 3.172-2.717 5.252l-7.085 8.376a.834.834 0 0 0 .098 1.175Zm18.87-5.636c1.095.019 1.095 1.647 0 1.666-1.095-.02-1.095-1.647 0-1.666Zm-9.166-7.5c1.325-.041 2.153 1.6 1.35 2.637-.895 1.302-3.046.622-3.016-.97 0-.92.747-1.667 1.666-1.667Z"/><path fill="#FF7F49" d="M45 1H14.17c-2.757 0-5 2.243-5 5v3.283c.015 1.096 1.656 1.087 1.666 0V6a3.337 3.337 0 0 1 3.334-3.333H45A3.337 3.337 0 0 1 48.333 6v24.998A3.336 3.336 0 0 1 45 34.331h-8.382a.833.833 0 1 0 0 1.667H45c2.757 0 5-2.243 5-5V6c0-2.757-2.243-5-5-5Z"/><path fill="#FF7F49" d="M36.667 30.165c-1.092.017-1.097 1.648 0 1.667h9.167c1.092-.018 1.097-1.649 0-1.667h-9.167Zm9.167-3.333h-5c-1.094.017-1.097 1.648 0 1.666h5c1.093-.017 1.096-1.648 0-1.666ZM20.002 6.833c1.093-.018 1.097-1.648 0-1.667h-6.667c-1.093.018-1.096 1.648 0 1.667h6.667Z"/></svg>