<svg xmlns="http://www.w3.org/2000/svg" width="43" height="40" fill="none"><g fill="#FF7F49" clip-path="url(#a)"><path d="M17.744 2.674C9.52 2.674 2.853 8.94 2.853 16.67s6.667 13.995 14.89 13.995c8.225 0 14.892-6.266 14.892-13.995-.01-7.725-6.67-13.986-14.891-13.995Zm0 1.333c4.38.004 8.484 2.01 11.002 5.378l-1.773 1.666a2.934 2.934 0 0 0-1.43-.38c-1.566 0-2.836 1.194-2.836 2.666.003.475.142.94.402 1.346l-4.643 4.363a2.901 2.901 0 0 0-2.863 0l-3.225-3.03c.26-.407.4-.872.402-1.346.002-1.47-1.264-2.662-2.827-2.664-1.293-.001-2.423.82-2.745 1.998h-2.63C5.92 8.177 11.4 4.016 17.743 4.007Zm9.218 9.33c0 .736-.635 1.333-1.418 1.333-.784 0-1.418-.597-1.418-1.333s.634-1.333 1.418-1.333c.783 0 1.418.597 1.418 1.333Zm-8.51 7.997c0 .736-.634 1.333-1.417 1.333-.784 0-1.419-.597-1.419-1.333s.635-1.333 1.419-1.333c.783 0 1.418.597 1.418 1.333Zm-7.09-6.664c0 .736-.635 1.333-1.418 1.333-.784 0-1.419-.597-1.419-1.333s.635-1.333 1.419-1.333c.783 0 1.418.597 1.418 1.333ZM24.29 27.74a14.142 14.142 0 0 1-6.546 1.59c-7.436.006-13.468-5.655-13.473-12.644 0-.45.025-.901.076-1.35h2.86c.323 1.173 1.447 1.995 2.737 2a2.94 2.94 0 0 0 1.431-.378l3.225 3.03c-.26.407-.4.872-.402 1.346 0 1.472 1.27 2.666 2.837 2.666 1.566 0 2.836-1.194 2.836-2.666a2.512 2.512 0 0 0-.402-1.346l4.643-4.363c.432.245.927.375 1.432.378 1.566 0 2.836-1.194 2.836-2.666a2.513 2.513 0 0 0-.402-1.345l1.546-1.453c3.609 6.109 1.265 13.81-5.234 17.201Z"/><path d="M35.471 6.673c1.29-.005 2.414-.826 2.736-2h4.355V3.342h-4.355c-.322-1.173-1.446-1.995-2.736-2-1.566 0-2.836 1.194-2.836 2.666.002.475.141.94.402 1.346l-1.246 1.17C25.83-.774 14.701-2.15 6.934 3.453c-7.766 5.602-9.23 16.061-3.268 23.36 5.627 6.89 15.942 8.561 23.699 3.84l2.14 2.011 1.003.943 5.708 5.364c1.452 1.364 3.805 1.364 5.257 0 1.452-1.364 1.452-3.576 0-4.94l-5.708-5.365-1.003-.943-2.14-2.01c3.799-5.5 3.799-12.585 0-18.085l1.418-1.333a2.93 2.93 0 0 0 1.431.379Zm0-3.998c.784 0 1.419.596 1.419 1.332 0 .736-.636 1.333-1.419 1.333s-1.418-.597-1.418-1.333.635-1.332 1.418-1.332Zm5 32.297a2.07 2.07 0 0 1 .036 3.056c-.887.853-2.343.869-3.252.035a2.017 2.017 0 0 1-.037-.035l-5.708-5.365 3.252-3.056 5.708 5.365Zm-6.711-6.307-3.252 3.056-1.963-1.845c.1-.072.193-.151.292-.225a17.87 17.87 0 0 0 .777-.62c.077-.066.151-.133.227-.2.29-.256.572-.52.845-.793l.212-.214a16.902 16.902 0 0 0 .66-.73c.078-.092.162-.18.239-.274l1.963 1.845Zm-2.75-3.096c-.224.293-.454.58-.698.857-.07.08-.146.159-.22.238a15.417 15.417 0 0 1-1.713 1.61c-.085.067-.168.14-.253.207-.295.229-.6.446-.912.655-7.34 4.929-17.543 3.332-22.787-3.567C-.818 18.67.882 9.083 8.223 4.154 15.563-.775 25.765.822 31.01 7.72c4.058 5.338 4.058 12.51 0 17.848Z"/></g><defs><clipPath id="a"><path fill="#fff" d="M0 0h42.562v40H0z"/></clipPath></defs></svg>