<svg xmlns="http://www.w3.org/2000/svg" width="158" height="40" viewBox="0 0 158 40" fill="none">
  <path d="M 17.00 35.94 C 9.50 31.69, 4.81 22.12, 8.56 11.50 C 10.44 7.25, 15.12 5.12, 20.75 6.19" stroke="#68C9BF" stroke-width="1" stroke-linecap="round"/>
  <path d="M 17.00 35.94 C 10.44 30.62, 6.69 28.50, 3.88 27.44 C 7.62 34.88, 13.25 35.94, 17.00 35.94 Z" stroke="#68C9BF" stroke-width="1" fill="none" stroke-linejoin="round"/>
  <path d="M 17.00 35.94 C 20.75 30.62, 26.38 28.50, 30.12 27.44 C 26.38 34.88, 20.75 35.94, 17.00 35.94 Z" stroke="#68C9BF" stroke-width="1" fill="none" stroke-linejoin="round"/>
  <path d="M 13.25 12.56 C 12.31 16.81, 9.88 18.73, 11.84 20.85 C 11.00 23.19, 13.25 26.38, 17.00 26.91" stroke="#68C9BF" stroke-width="1" stroke-linecap="round" stroke-linejoin="round"/>
  <path d="M 24.97 9.59 V 15.96 M 22.16 12.77 H 27.78" stroke="#68C9BF" stroke-width="1" stroke-linecap="round"/>
  <text x="38.00" y="25.44" font-family="Georgia, 'Times New Roman', serif" font-size="16" letter-spacing="-0.3" fill="#68C9BF">Luméa</text>
  <text x="95.12" y="25.44" font-family="Georgia, 'Times New Roman', serif" font-size="16" letter-spacing="-0.3" fill="#4B4B4B">Beauty</text>
</svg>