<svg xmlns="http://www.w3.org/2000/svg" width="158" height="40" viewBox="0 0 158 40">
  <path d="M6 31V16L18 7L30 16V31" fill="none" stroke="#1F2933" stroke-width="4" stroke-linecap="square" stroke-linejoin="miter"/>
  <path d="M6 31H12" fill="none" stroke="#1F2933" stroke-width="4" stroke-linecap="square"/>
  <path d="M24 31H30" fill="none" stroke="#1F2933" stroke-width="4" stroke-linecap="square"/>
  <rect x="11" y="17" width="14" height="14" fill="none" stroke="#007C72" stroke-width="3"/>
  <path d="M18 17V31" fill="none" stroke="#007C72" stroke-width="2"/>
  <path d="M11 24H25" fill="none" stroke="#007C72" stroke-width="2"/>
  <path d="M41.000,14.300 L44.197,14.300 L44.197,26.700 L41.000,26.700 L41.000,14.300 Z" fill="#1F2933"/>
  <path d="M45.097,14.300 L48.666,14.300 L53.176,22.804 L53.176,14.300 L56.208,14.300 L56.208,26.700 L52.636,26.700 L48.127,18.196 L48.127,26.700 L45.097,26.700 L45.097,14.300 Z" fill="#1F2933"/>
  <path d="M57.108,14.300 L65.734,14.300 L65.734,16.718 L60.305,16.718 L60.305,19.025 L65.413,19.025 L65.413,21.443 L60.305,21.443 L60.305,26.700 L57.108,26.700 L57.108,14.300 Z" fill="#1F2933"/>
  <path d="M66.634,14.300 L69.831,14.300 L69.831,26.700 L66.634,26.700 L66.634,14.300 Z" fill="#1F2933"/>
  <path d="M79.376,14.892 L79.376,17.422 Q78.393,16.982 77.455,16.759 Q76.520,16.534 75.688,16.534 Q74.584,16.534 74.054,16.838 Q73.526,17.141 73.526,17.781 Q73.526,18.263 73.882,18.532 Q74.238,18.798 75.176,18.990 L76.487,19.254 Q78.480,19.656 79.320,20.473 Q80.163,21.288 80.163,22.794 Q80.163,24.769 78.990,25.734 Q77.816,26.700 75.406,26.700 Q74.271,26.700 73.126,26.482 Q71.981,26.267 70.836,25.842 L70.836,23.242 Q71.981,23.849 73.050,24.159 Q74.118,24.466 75.112,24.466 Q76.121,24.466 76.656,24.131 Q77.191,23.793 77.191,23.168 Q77.191,22.609 76.828,22.305 Q76.464,22.000 75.375,21.759 L74.182,21.495 Q72.389,21.111 71.559,20.271 Q70.731,19.431 70.731,18.006 Q70.731,16.221 71.884,15.261 Q73.037,14.300 75.199,14.300 Q76.185,14.300 77.225,14.449 Q78.265,14.597 79.376,14.892 Z" fill="#1F2933"/>
  <path d="M89.708,14.892 L89.708,17.422 Q88.724,16.982 87.787,16.759 Q86.852,16.534 86.019,16.534 Q84.915,16.534 84.385,16.838 Q83.857,17.141 83.857,17.781 Q83.857,18.263 84.213,18.532 Q84.569,18.798 85.507,18.990 L86.818,19.254 Q88.811,19.656 89.651,20.473 Q90.494,21.288 90.494,22.794 Q90.494,24.769 89.321,25.734 Q88.148,26.700 85.737,26.700 Q84.603,26.700 83.458,26.482 Q82.313,26.267 81.168,25.842 L81.168,23.242 Q82.313,23.849 83.381,24.159 Q84.449,24.466 85.443,24.466 Q86.452,24.466 86.987,24.131 Q87.523,23.793 87.523,23.168 Q87.523,22.609 87.159,22.305 Q86.795,22.000 85.707,21.759 L84.513,21.495 Q82.720,21.111 81.890,20.271 Q81.063,19.431 81.063,18.006 Q81.063,16.221 82.215,15.261 Q83.368,14.300 85.530,14.300 Q86.516,14.300 87.556,14.449 Q88.596,14.597 89.708,14.892 Z" fill="#1F2933"/>
  <path d="M91.394,14.300 L94.591,14.300 L94.591,26.700 L91.394,26.700 L91.394,14.300 Z" fill="#1F2933"/>
  <path d="M101.697,16.718 L101.697,24.284 L102.842,24.284 Q104.801,24.284 105.835,23.312 Q106.871,22.339 106.871,20.487 Q106.871,18.645 105.840,17.683 Q104.812,16.718 102.842,16.718 L101.697,16.718 Z M98.500,14.300 L101.870,14.300 Q104.695,14.300 106.077,14.704 Q107.459,15.105 108.447,16.070 Q109.319,16.910 109.741,18.007 Q110.167,19.102 110.167,20.487 Q110.167,21.893 109.741,22.993 Q109.319,24.093 108.447,24.930 Q107.451,25.895 106.055,26.299 Q104.660,26.700 101.870,26.700 L98.500,26.700 L98.500,14.300 Z" fill="#007C72"/>
  <path d="M116.814,16.534 Q115.405,16.534 114.629,17.574 Q113.853,18.613 113.853,20.504 Q113.853,22.384 114.629,23.426 Q115.405,24.466 116.814,24.466 Q118.230,24.466 119.007,23.426 Q119.783,22.384 119.783,20.504 Q119.783,18.613 119.007,17.574 Q118.230,16.534 116.814,16.534 Z M116.814,14.300 Q119.696,14.300 121.327,15.950 Q122.962,17.597 122.962,20.504 Q122.962,23.401 121.327,25.050 Q119.696,26.700 116.814,26.700 Q113.940,26.700 112.303,25.050 Q110.667,23.401 110.667,20.504 Q110.667,17.597 112.303,15.950 Q113.940,14.300 116.814,14.300 Z" fill="#007C72"/>
  <path d="M123.462,14.300 L127.530,14.300 L130.352,20.936 L133.193,14.300 L137.254,14.300 L137.254,26.700 L134.232,26.700 L134.232,17.630 L131.376,24.316 L129.348,24.316 L126.491,17.630 L126.491,26.700 L123.462,26.700 L123.462,14.300 Z" fill="#007C72"/>
  <path d="M137.754,14.300 L140.890,14.300 L140.890,21.591 Q140.890,23.098 141.383,23.747 Q141.875,24.393 142.991,24.393 Q144.114,24.393 144.607,23.747 Q145.100,23.098 145.100,21.591 L145.100,14.300 L148.236,14.300 L148.236,21.591 Q148.236,24.174 146.940,25.438 Q145.647,26.700 142.991,26.700 Q140.342,26.700 139.047,25.438 Q137.754,24.174 137.754,21.591 L137.754,14.300 Z" fill="#007C72"/>
  <path d="M157.380,14.892 L157.380,17.422 Q156.397,16.982 155.459,16.759 Q154.524,16.534 153.692,16.534 Q152.588,16.534 152.058,16.838 Q151.530,17.141 151.530,17.781 Q151.530,18.263 151.886,18.532 Q152.242,18.798 153.180,18.990 L154.491,19.254 Q156.484,19.656 157.324,20.473 Q158.167,21.288 158.167,22.794 Q158.167,24.769 156.994,25.734 Q155.821,26.700 153.410,26.700 Q152.275,26.700 151.130,26.482 Q149.986,26.267 148.841,25.842 L148.841,23.242 Q149.986,23.849 151.054,24.159 Q152.122,24.466 153.116,24.466 Q154.125,24.466 154.660,24.131 Q155.196,23.793 155.196,23.168 Q155.196,22.609 154.832,22.305 Q154.468,22.000 153.379,21.759 L152.186,21.495 Q150.393,21.111 149.563,20.271 Q148.736,19.431 148.736,18.006 Q148.736,16.221 149.888,15.261 Q151.041,14.300 153.203,14.300 Q154.189,14.300 155.229,14.449 Q156.269,14.597 157.380,14.892 Z" fill="#007C72"/>
</svg>
